<?xml version="1.0" encoding="utf-8"?>
<!-- Generator: Adobe Illustrator 21.1.0, SVG Export Plug-In . SVG Version: 6.00 Build 0)  -->
<svg version="1.1" id="Layer_1" xmlns="http://www.w3.org/2000/svg" xmlns:xlink="http://www.w3.org/1999/xlink" x="0px" y="0px"
	 width="316px" height="98px" viewBox="0 0 316 98" style="enable-background:new 0 0 316 98;" xml:space="preserve">
<style type="text/css">
	.st0{fill:#F47920;}
	.st1{fill:#252F6B;}
	.st2{fill:#3BBEB4;}
	.st3{fill:url(#SVGID_1_);}
	.st4{fill:url(#SVGID_2_);}
	.st5{fill:url(#SVGID_3_);}
	.st6{fill:url(#SVGID_4_);}
	.st7{fill:url(#SVGID_5_);}
	.st8{fill:url(#SVGID_6_);}
	.st9{fill:url(#SVGID_7_);}
</style>
<path class="st0" d="M126.7,55.9h0.3l4.4-11.5c0.2-0.6,0.5-1.5,0.5-1.6c0,0.1,0.2,1,0.5,1.6l4.4,11.5h0.3l5.3-16.4h-1.7l-3.4,10.8
	c-0.2,0.7-0.4,1.7-0.5,1.8c0-0.1-0.3-1.1-0.5-1.8l-4.2-11h-0.3l-4.2,11c-0.3,0.7-0.5,1.7-0.5,1.8c0-0.1-0.3-1.1-0.5-1.8l-3.4-10.8
	h-1.8L126.7,55.9L126.7,55.9z M150.8,50.6l2.5-6.2c0.3-0.7,0.6-1.9,0.6-1.9c0,0,0.3,1.2,0.6,1.9l2.5,6.2H150.8L150.8,50.6z
	 M147.1,55.7h1.7l1.5-3.6h7.4l1.5,3.6h1.8l-6.9-16.4h-0.3L147.1,55.7L147.1,55.7z M172.9,55.9c2.9,0,5-1.6,5-4.3
	c0-2.4-1.4-3.8-4.1-5l-1.3-0.6c-1.8-0.8-2.6-1.5-2.6-2.9c0-1.4,1-2.3,2.6-2.3c1.5,0,2.4,0.8,3,1.8l1.4-0.9c-0.9-1.4-2.2-2.4-4.4-2.4
	c-2.4,0-4.3,1.5-4.3,3.9c0,2.3,1.3,3.4,3.6,4.4l1.3,0.6c2,0.9,3.1,1.7,3.1,3.4c0,1.7-1.5,2.8-3.4,2.8c-2.3,0-3.4-1.2-4.2-2.5
	l-1.4,0.8C168.1,54.4,169.8,55.9,172.9,55.9L172.9,55.9z M186.2,55.7h1.7v-7.1h8.7v7.1h1.7V39.5h-1.7v7.6h-8.7v-7.6h-1.7V55.7
	L186.2,55.7z M207.5,55.7h1.7V39.5h-1.7V55.7L207.5,55.7z M230.8,55.9h0.3V39.5h-1.6v10.9c0,0.7,0.1,1.8,0.1,1.8
	c-0.1-0.1-0.7-1-1.1-1.5l-9.7-11.4h-0.3v16.4h1.6V44.8c0-0.6-0.1-1.7-0.1-1.8c0.1,0.1,0.7,1,1.1,1.5L230.8,55.9L230.8,55.9z
	 M247.8,55.9c3.1,0,5.2-1.1,6.4-2.2V48h-6.4v1.5h4.8v3.4c-1,0.8-2.6,1.5-4.8,1.5c-3.9,0-6.7-2.9-6.7-6.7c0-3.9,2.7-6.7,6.6-6.7
	c2,0,3.4,0.6,4.5,1.7l1.2-1.2c-1.3-1.4-3.3-2.1-5.7-2.1c-4.7,0-8.3,3.4-8.3,8.3C239.3,52.5,243,55.9,247.8,55.9L247.8,55.9z
	 M265.4,55.7h1.7V41h5v-1.5h-11.7V41h5V55.7L265.4,55.7z M286.3,55.9c4.6,0,8.3-3.4,8.3-8.3c0-4.9-3.7-8.3-8.3-8.3
	c-4.6,0-8.3,3.4-8.3,8.3C278,52.5,281.7,55.9,286.3,55.9L286.3,55.9z M286.3,54.4c-3.8,0-6.5-2.9-6.5-6.7c0-3.9,2.8-6.7,6.5-6.7
	c3.8,0,6.6,2.9,6.6,6.7C292.9,51.5,290.1,54.4,286.3,54.4L286.3,54.4z M315.2,55.9h0.3V39.5h-1.6v10.9c0,0.7,0.1,1.8,0.1,1.8
	c-0.1-0.1-0.7-1-1.1-1.5l-9.7-11.4h-0.3v16.4h1.6V44.8c0-0.6-0.1-1.7-0.1-1.8c0.1,0.1,0.7,1,1.1,1.5L315.2,55.9L315.2,55.9z"/>
<polygon class="st1" points="302.7,29.2 316,29.2 316,25.7 306.7,25.7 306.7,21.2 314.5,21.2 314.5,17.7 306.7,17.7 306.7,13.3 
	315.6,13.3 315.6,9.7 302.7,9.7 "/>
<path class="st1" d="M290.2,29.5c3.7,0,6.4-1.7,8.1-4.3l-3.1-2.1c-1.1,1.7-2.5,2.9-5,2.9c-3.5,0-5.9-2.8-5.9-6.4
	c0-3.6,2.4-6.4,5.9-6.4c2.2,0,3.8,1.1,4.7,2.5l3.1-2.2c-1.7-2.7-4.3-4-7.8-4c-5.6,0-10,4.2-10,10C280.2,25.2,284.6,29.5,290.2,29.5"
	/>
<polyline class="st1" points="259.7,9.6 259.3,9.6 259.3,29.2 263.1,29.2 263.1,21 263.1,18.1 265.2,20.2 274.9,29.4 275.3,29.4 
	275.3,9.7 271.6,9.7 271.6,17.9 271.6,20.8 "/>
<polygon class="st1" points="240.9,29.2 254.2,29.2 254.2,25.7 244.9,25.7 244.9,21.2 252.7,21.2 252.7,17.7 244.9,17.7 244.9,13.3 
	253.8,13.3 253.8,9.7 240.9,9.7 "/>
<rect x="231.4" y="9.7" class="st1" width="4" height="19.5"/>
<path class="st1" d="M218.8,29.5c3.7,0,6.4-1.7,8.1-4.3l-3.1-2.1c-1.1,1.7-2.5,2.9-5,2.9c-3.5,0-5.9-2.8-5.9-6.4
	c0-3.6,2.4-6.4,5.9-6.4c2.2,0,3.8,1.1,4.7,2.5l3.1-2.2c-1.7-2.7-4.3-4-7.8-4c-5.6,0-10,4.2-10,10C208.7,25.2,213.2,29.5,218.8,29.5"
	/>
<path class="st1" d="M198.2,29.5c3.8,0,6.6-2,6.6-5.6c0-3.3-1.9-4.8-5.3-6.3l-1-0.4c-1.7-0.7-2.5-1.2-2.5-2.4c0-1,0.7-1.7,1.9-1.7
	c1.1,0,1.9,0.5,2.6,1.7l3.1-2c-1.3-2.3-3.1-3.2-5.7-3.2c-3.6,0-5.9,2.3-5.9,5.3c0,3.3,1.9,4.8,4.8,6l1,0.4c1.8,0.8,2.9,1.3,2.9,2.7
	c0,1.1-1.1,2-2.7,2c-2,0-3.1-1-3.9-2.4l-3.3,1.9C192.1,27.7,194.5,29.5,198.2,29.5"/>
<polygon class="st1" points="166.4,29.2 179.7,29.2 179.7,25.7 170.4,25.7 170.4,21.2 178.2,21.2 178.2,17.7 170.4,17.7 170.4,13.3 
	179.3,13.3 179.3,9.7 166.4,9.7 "/>
<polygon class="st1" points="149.1,29.2 153.1,29.2 153.1,21.9 160.8,21.9 160.8,18.3 153.1,18.3 153.1,13.3 161.6,13.3 161.6,9.7 
	149.1,9.7 "/>
<rect x="139.5" y="9.7" class="st1" width="4" height="19.5"/>
<polygon class="st1" points="122,29.2 134.8,29.2 134.8,25.7 126,25.7 126,9.7 122,9.7 "/>
<rect x="150.8" y="66.4" class="st2" width="3.3" height="19"/>
<polygon class="st2" points="172.1,79 160,66.2 159.8,66 159.1,66 159.1,66.3 159.1,85.4 162.4,85.4 162.4,72.7 174.7,85.7 
	175.4,85.7 175.4,66.4 172.1,66.4 "/>
<path class="st2" d="M187.3,74.1c-2.2-0.9-3.2-1.8-3.2-3c0-0.9,0.8-1.9,2.4-1.9c1.5,0,3.6,1.4,3.8,1.5c0.1,0.1,0.4,0.3,0.4,0.3
	l1.9-2.7l-0.5-0.4c0,0,0,0,0,0c-0.5-0.4-2.7-1.8-5.4-1.8c-4.3,0-6.1,2.8-6.1,5.2c0,3.2,2.6,4.8,5.1,5.9c2.3,0.9,3.4,1.9,3.4,3.3
	c0,1.2-1.1,2.1-2.5,2.1c-1.7,0-3.8-1.5-4.1-1.7s-0.6-0.3-0.6-0.3l-1.6,2.6c0,0,0.1,0.2,0.4,0.4c0.8,0.6,2.6,2.1,6,2.1
	c3.8,0,6.2-2.6,6.2-5.4C192.9,76.8,189.9,75.2,187.3,74.1z"/>
<polygon class="st2" points="209.6,66.4 195.9,66.4 195.9,69.3 201.1,69.3 201.1,85.4 204.4,85.4 204.4,69.3 209.6,69.3 "/>
<polygon class="st2" points="235.2,66.4 221.5,66.4 221.5,69.3 226.7,69.3 226.7,85.4 230,85.4 230,69.3 235.2,69.3 "/>
<polygon class="st2" points="272.6,66.4 258.9,66.4 258.9,69.3 264.1,69.3 264.1,85.4 267.4,85.4 267.4,69.3 272.6,69.3 "/>
<rect x="213.7" y="66.4" class="st2" width="3.3" height="19"/>
<path class="st2" d="M251.8,66.4v11.1c0,3.7-1.7,5.4-4.7,5.4c-2.9,0-4.7-1.7-4.7-5.4V66.4h-3.3v11.2c0,5.4,3.6,8.2,8,8.2
	c4.4,0,8-2.8,8-8.2V66.4H251.8z"/>
<polygon class="st2" points="288.6,69.2 288.6,66.4 276.5,66.4 276.5,85.4 288.6,85.4 288.6,82.6 279.8,82.6 279.8,77.2 288.2,77.2 
	288.2,74.4 279.8,74.4 279.8,69.2 "/>
<g>
	<linearGradient id="SVGID_1_" gradientUnits="userSpaceOnUse" x1="46.2172" y1="54.969" x2="46.2172" y2="-8.1906">
		<stop  offset="0.3" style="stop-color:#F47920"/>
		<stop  offset="0.3984" style="stop-color:#F68524"/>
		<stop  offset="0.6616" style="stop-color:#F9A132"/>
		<stop  offset="0.8714" style="stop-color:#FCB33C"/>
		<stop  offset="1" style="stop-color:#FDB940"/>
	</linearGradient>
	<path class="st3" d="M75.8,30.2v-10c0-1.3-0.2-3.1-0.5-3.4c-0.3-0.3-1.4-1.1-2.5-1.7L61,8.2L49.2,1.4c-1-0.6-2-1.1-2.5-1.3
		C46.6,0,46.4,0,46.2,0c-0.2,0-0.3,0-0.5,0.1c-0.4,0.2-1.4,0.7-2.4,1.3L19.8,14.9l-0.3,0.2c0,0,0,0,0,0c-1.1,0.6-2.2,1.4-2.5,1.7
		c-0.3,0.3-0.5,2.1-0.5,3.4v10.6c0,1.3,0.9,1.8,2,1.1l6.2-3.6c0,0,0,0,0,0l2-1.1c1.6-0.9,4.1-0.9,5.7,0l2,1.1c0,0,0,0,0,0l10.2,5.9
		c1.4,0.8,2.6,0.7,4,0L59,28.4c0,0,0,0,0,0l2-1.1c1.6-0.9,4.1-0.9,5.7,0l4.6,2.6l2.6,1.5C74.9,32,75.8,31.5,75.8,30.2z"/>
	<linearGradient id="SVGID_2_" gradientUnits="userSpaceOnUse" x1="20.8584" y1="100.4696" x2="20.8584" y2="49.2226">
		<stop  offset="0" style="stop-color:#00A6B5"/>
		<stop  offset="0.1288" style="stop-color:#00A7B5"/>
		<stop  offset="0.2623" style="stop-color:#00AAB4"/>
		<stop  offset="0.398" style="stop-color:#00AFB4"/>
		<stop  offset="0.5343" style="stop-color:#00B8B4"/>
		<stop  offset="0.5952" style="stop-color:#3BBEB4"/>
	</linearGradient>
	<path class="st4" d="M28.4,62.2L23,59.1L17.6,56l-2-1.1c-1.6-0.9-2.9-3.1-2.9-5v-2.3V42c0-1.3-0.9-1.8-2-1.1l0,0l-3.9,2.3l-3.9,2.3
		c-1.1,0.6-2.2,1.4-2.5,1.7C0.2,47.4,0,49.2,0,50.5v27.4c0,1.3,0.1,2.6,0.3,3c0.1,0.4,1.6,1.5,2.7,2.1l11.9,6.9l11.9,6.9
		c1.1,0.6,2.3,1.2,2.7,1.3c0.4,0.1,2.1-0.6,3.2-1.3l4.2-2.4l4.2-2.4c1.1-0.6,1.1-1.7,0-2.3L38.1,88l-2.8-1.6c0,0,0,0,0,0l-2-1.1
		c-1.6-0.9-2.9-3.1-2.9-5v-2.3V65.7C30.4,64.4,29.5,62.9,28.4,62.2z"/>
	<linearGradient id="SVGID_3_" gradientUnits="userSpaceOnUse" x1="29.1553" y1="55.0912" x2="29.1553" y2="-6.966">
		<stop  offset="0.3" style="stop-color:#F47920"/>
		<stop  offset="0.3984" style="stop-color:#F68524"/>
		<stop  offset="0.6616" style="stop-color:#F9A132"/>
		<stop  offset="0.8714" style="stop-color:#FCB33C"/>
		<stop  offset="1" style="stop-color:#FDB940"/>
	</linearGradient>
	<path class="st5" d="M40.9,36.5l-4.2-2.4l-4.3-2.4c-0.6-0.4-1.4-0.8-2.1-1c-0.7-0.3-1.1-0.3-1.7,0c-0.6,0.3-1.3,0.7-2.1,1.1l-4,2.3
		l-4,2.3c-1.1,0.6-2,2.2-2,3.4v7.8c0,1.3,0,2.6,0.3,3.1c0.3,0.5,1.6,1.4,2.7,2l8.8,5.1c1.1,0.6,2,0.1,2-1.1v-6.1v-2.3
		c0-1.9,1.2-4,2.9-5l2-1.1c0,0,0,0,0,0l2.8-1.6l2.8-1.6C42,38.2,42,37.1,40.9,36.5z"/>
	<linearGradient id="SVGID_4_" gradientUnits="userSpaceOnUse" x1="72.592" y1="94.2601" x2="72.592" y2="33.1958">
		<stop  offset="0.3" style="stop-color:#65BC46"/>
		<stop  offset="1" style="stop-color:#C2DB73"/>
	</linearGradient>
	<path class="st6" d="M90.5,45.4l-4.4-2.6l-4.4-2.6c-1.1-0.6-2-0.1-2,1.1v6.1v2.3c0,1.9-1.2,4-2.9,5l-2,1.1l0,0l-4.9,2.8l-4.9,2.8
		c-1.1,0.6-2,2.2-2,3.4v12.8v2.3c0.1,1.9-1.2,4.1-2.9,5l-2,1.1c0,0,0,0,0,0L55.4,88l-2.8,1.6c-1.1,0.6-1.1,1.7,0,2.3l4.2,2.4
		l4.2,2.4c1.1,0.6,2.3,1.2,2.7,1.3c0.4,0.1,2.1-0.6,3.2-1.3l11.9-6.9L90.5,83c1.1-0.6,2.2-1.4,2.5-1.7c0.3-0.3,0.5-2.1,0.5-3.4V50.5
		c0-1.3-0.2-3.1-0.5-3.4C92.7,46.8,91.6,46,90.5,45.4z"/>
	<linearGradient id="SVGID_5_" gradientUnits="userSpaceOnUse" x1="63.7871" y1="92.3601" x2="63.7871" y2="32.0687">
		<stop  offset="0.3" style="stop-color:#65BC46"/>
		<stop  offset="1" style="stop-color:#C2DB73"/>
	</linearGradient>
	<path class="st7" d="M52.6,38.8l2.8,1.6l2.8,1.6c0,0,0,0,0,0l2,1.1c1.6,0.9,2.9,3.1,2.9,5v2.3v5.5c0,1.3,0.9,1.8,2,1.1l3.9-2.3
		l3.9-2.3c1.1-0.6,2.2-1.2,2.5-1.7c0.2-0.3,0.5-2.1,0.5-3.4v-8.3c0-1.3-0.9-2.8-2-3.4l-7.1-4.1c-1-0.6-2.1-1.2-2.5-1.3
		c-0.3-0.2-0.6-0.2-0.9,0c-0.4,0.2-1.5,0.7-2.5,1.3l-4.2,2.4l-4.2,2.4C51.5,37.1,51.5,38.2,52.6,38.8z"/>
	<linearGradient id="SVGID_6_" gradientUnits="userSpaceOnUse" x1="46.7248" y1="99.3359" x2="46.7248" y2="50.345">
		<stop  offset="0" style="stop-color:#00A6B5"/>
		<stop  offset="0.1288" style="stop-color:#00A7B5"/>
		<stop  offset="0.2623" style="stop-color:#00AAB4"/>
		<stop  offset="0.398" style="stop-color:#00AFB4"/>
		<stop  offset="0.5343" style="stop-color:#00B8B4"/>
		<stop  offset="0.5952" style="stop-color:#3BBEB4"/>
	</linearGradient>
	<path class="st8" d="M37.1,83l7.6,4.4c1.5,0.8,2.5,0.9,4,0l7.6-4.4c1.1-0.6,2.3-1.5,2.7-2.1c0.2-0.4,0.3-1.7,0.3-3V67.3
		c0-1.3-0.9-1.8-2-1.1l-3.1,1.8l-5.1,2.9c-0.4,0.3-1.1,0.5-1.4,0.7c-0.5,0.2-0.9,0.2-1.4,0.2c-0.5,0-1-0.1-1.4-0.2
		c-0.3-0.1-1.1-0.4-1.6-0.6l-2-1.1c0,0,0,0,0,0l-2.6-1.5l-2.6-1.5c-1.1-0.6-2-0.1-2,1.1v10c0,1.3,0,2.7,0.3,3
		C34.8,81.5,36.1,82.4,37.1,83z"/>
	<linearGradient id="SVGID_7_" gradientUnits="userSpaceOnUse" x1="46.7248" y1="59.6686" x2="46.7248" y2="40.8997">
		<stop  offset="0" style="stop-color:#2A3588"/>
		<stop  offset="0.1601" style="stop-color:#293E8F"/>
		<stop  offset="0.4457" style="stop-color:#284B9B"/>
		<stop  offset="0.7277" style="stop-color:#2853A3"/>
		<stop  offset="1" style="stop-color:#2855A6"/>
	</linearGradient>
	<path class="st9" d="M36.2,62.3l3.5,2c0,0,2.4,1.4,3.5,2c1.1,0.6,1.4,0.8,2.3,1.1c0.4,0.2,0.9,0.3,1.6,0c0.4-0.2,0.9-0.5,2-1.1
		l4-2.3l4-2.3c1.4-0.9,2-2,2-3.4v-7.8c0-1.3,0-2.6-0.2-3c-0.2-0.5-1.6-1.4-2.7-2.1L48.7,41c-1.1-0.7-2.7-0.8-4,0l-7.6,4.4
		c-1.1,0.6-2.2,1.4-2.5,1.7c-0.3,0.3-0.5,2.1-0.5,3.4v8.3C34.2,60.6,34.7,61.4,36.2,62.3z"/>
</g>
<rect x="122.6" y="74.4" class="st2" width="20" height="1.6"/>
<rect x="295.6" y="74.4" class="st2" width="20" height="1.6"/>
</svg>
