<?xml version="1.0" encoding="utf-8"?>
<!-- Generator: Adobe Illustrator 22.1.0, SVG Export Plug-In . SVG Version: 6.00 Build 0)  -->
<svg version="1.1" id="Layer_1" xmlns="http://www.w3.org/2000/svg" xmlns:xlink="http://www.w3.org/1999/xlink" x="0px" y="0px"
	 viewBox="0 0 60 47" style="enable-background:new 0 0 60 47;" xml:space="preserve">
<style type="text/css">
	.st0{fill:#B3282D;}
	.st1{fill:none;}
	.st2{fill:#808080;}
	.st3{fill:#FFFFFF;}
</style>
<g id="Layer_1-2">
	<rect id="Rectangle-path" class="st0" width="59.5" height="46.5"/>
	<path id="Shape" class="st1" d="M18.7,30.9c1.2,0,2.2-1,2.2-2.2c0-0.6-0.2-1.1-0.6-1.5c-0.4-0.4-1-0.6-1.5-0.6
		c-1.2,0-2.2,1-2.2,2.2c0,0.6,0.2,1.1,0.6,1.5C17.6,30.7,18.2,30.9,18.7,30.9L18.7,30.9z"/>
	<path id="Shape_1_" class="st1" d="M46.6,30.5l0.1-19.2l12.9-9.7V0h-4L41.2,10.6L41.1,30l-13,9.4c0.2,0.4,0.4,0.9,0.4,1.4
		c0,1.6-1.3,2.9-2.9,2.9c-0.7,0-1.5-0.3-2-0.8c-0.5-0.5-0.8-1.2-0.8-2c0-1.2,0.7-2.2,1.8-2.7c1.1-0.4,2.3-0.2,3.2,0.7l12.7-9.2
		l0.1-19.4L54.4,0h-7.7L32.3,10.4v14.7L3,46.5h32l-3-4.9L46.6,30.5z"/>
	<path id="Shape_2_" class="st1" d="M25.6,43c1.2,0,2.2-1,2.2-2.2c0-0.6-0.2-1.1-0.6-1.5c-0.4-0.4-1-0.6-1.5-0.6
		c-1.2,0-2.2,1-2.2,2.2c0,0.6,0.2,1.1,0.6,1.5S25.1,43,25.6,43z"/>
	<path id="Shape_3_" class="st1" d="M59.5,2.4l-12.2,9.2l-0.1,19.2L32.9,41.7l2.9,4.7h8.4l-2.4-4.2L55,31.5l-0.1-17
		c-1.4-0.2-2.5-1.4-2.5-2.8c0-1.6,1.3-2.9,2.9-2.9c0.7,0,1.5,0.3,2,0.8c0.5,0.5,0.8,1.2,0.8,2c0,1.4-1.1,2.7-2.5,2.8l0.1,17.3
		l-13,10.6l2.3,4h14.5V2.4z"/>
	<path id="Shape_4_" class="st1" d="M56.5,13.4c0.6-0.4,0.9-1.1,0.9-1.8c0-0.6-0.2-1.1-0.6-1.5c-0.4-0.4-1-0.6-1.5-0.6
		c-0.6,0-1.2,0.2-1.6,0.6c-0.4,0.4-0.7,1-0.7,1.6c0,0.4,0.1,0.9,0.4,1.2l-0.3,0.2l0.3-0.2c0.4,0.6,1.1,0.9,1.7,0.9
		C55.6,13.9,56.1,13.7,56.5,13.4z"/>
	<polygon id="Shape_5_" class="st1" points="18.1,5.6 25.8,0 0,0 0,12.5 11.6,4.9 	"/>
	<path id="Shape_6_" class="st1" d="M31.6,10L45.5,0H34L18,11.6l-6.1-0.6L0,18.8v18.1l23.8-17.2L23.6,17c-0.8-0.1-1.5-0.5-1.9-1.1
		l0.3-0.2l-0.3,0.2c-0.3-0.5-0.5-1.1-0.5-1.6c0-1.6,1.3-2.8,2.9-2.8c0.7,0,1.5,0.3,2,0.8c0.5,0.5,0.8,1.2,0.8,2
		c0,1.4-1.1,2.6-2.5,2.8l0.2,3L0,37.8v4.8l16.4-12.2c-0.3-0.4-0.4-1-0.4-1.5c0-1.6,1.3-2.9,2.9-2.9c0.7,0,1.5,0.3,2,0.8
		c0.5,0.5,0.8,1.2,0.8,2c0,1.6-1.3,2.9-2.9,2.9c-0.7,0-1.5-0.3-2-0.8L0,43.4v3.1h1.9l29.7-21.7L31.6,10z"/>
	<path id="Shape_7_" class="st1" d="M25.2,16c0.6-0.4,0.9-1.1,0.9-1.8c0-0.6-0.2-1.1-0.6-1.5c-0.4-0.4-1-0.6-1.5-0.6
		c-1.2,0-2.2,1-2.2,2.2c0,0.4,0.1,0.9,0.4,1.2l0,0c0.4,0.6,1.1,0.9,1.8,0.9C24.4,16.4,24.9,16.3,25.2,16L25.2,16z"/>
	<polygon id="Shape_8_" class="st1" points="17.8,10.9 32.8,0 27,0 18.3,6.3 11.8,5.6 0,13.3 0,18 11.7,10.2 	"/>
	<polygon id="Shape_9_" class="st2" points="32.3,10.4 46.7,0 45.5,0 31.6,10 31.6,24.7 1.9,46.5 3,46.5 32.3,25.1 	"/>
	<path id="Shape_10_" class="st2" d="M40.5,29.7l-12.7,9.2c0.2,0.2,0.3,0.3,0.4,0.5l13-9.4l0.1-19.4L55.5,0h-1.1L40.5,10.3
		L40.5,29.7z"/>
	<polygon id="Shape_11_" class="st2" points="18,11.6 34,0 32.8,0 17.8,10.9 11.7,10.2 0,18 0,18.8 11.8,10.9 	"/>
	<polygon id="Shape_12_" class="st2" points="24.3,17 24,17 23.6,17 23.8,19.6 0,36.9 0,37.8 24.4,20 	"/>
	<path id="Shape_13_" class="st2" d="M24.3,16.6V17c1.4-0.2,2.5-1.4,2.5-2.8c0-1.5-1.3-2.8-2.8-2.8c-1.6,0-2.9,1.3-2.9,2.9
		c0,0.6,0.2,1.2,0.5,1.6l0.3-0.2l-0.3,0.2c0.5,0.6,1.2,1,1.9,1.1v-0.4H24.3z M22.3,15.5L22.3,15.5c-0.3-0.4-0.4-0.8-0.4-1.2
		c0-1.2,1-2.2,2.1-2.2c0.6,0,1.1,0.2,1.5,0.6c0.4,0.4,0.6,0.9,0.6,1.5c0,1.2-1,2.2-2.1,2.2C23.3,16.4,22.6,16.1,22.3,15.5L22.3,15.5
		z"/>
	<polygon id="Shape_14_" class="st2" points="24.3,17 24.3,16.6 23.6,16.6 23.6,17 24,17 	"/>
	<path id="Shape_15_" class="st2" d="M27.5,39.1l0.3-0.2c-0.5-0.6-1.3-0.9-2.1-0.9c-1.6,0-2.9,1.3-2.9,2.9c0,0.6,0.2,1.2,0.5,1.6
		l0.3-0.2l0.3-0.2c-0.3-0.4-0.4-0.8-0.4-1.2c0-1.2,1-2.2,2.2-2.2c0.6,0,1.1,0.2,1.5,0.6c0.4,0.4,0.6,0.9,0.6,1.5
		c0,0.6-0.2,1.1-0.6,1.6s-1,0.7-1.5,0.7c-0.7,0-1.3-0.3-1.7-0.9l-0.3,0.2l-0.3,0.2c0.5,0.7,1.4,1.2,2.3,1.2c1.6,0,2.9-1.3,2.9-2.9
		c0-0.5-0.1-0.9-0.4-1.4l-0.3,0.2L27.5,39.1z"/>
	<path id="Shape_16_" class="st2" d="M27.8,38.9l-0.3,0.2l0.4,0.5l0.3-0.2C28,39.2,27.9,39,27.8,38.9L27.8,38.9z"/>
	<polygon id="Shape_17_" class="st2" points="18.3,6.3 27,0 25.8,0 18.1,5.6 11.6,4.9 0,12.5 0,13.3 11.8,5.6 	"/>
	<polygon id="Shape_18_" class="st2" points="47.3,30.8 47.4,11.6 59.5,2.4 59.5,1.6 46.7,11.3 46.6,30.5 32,41.5 35,46.5 
		35.8,46.5 32.9,41.7 	"/>
	<polygon id="Shape_19_" class="st2" points="55.6,31.9 55.5,14.5 55.2,14.5 54.9,14.5 55,31.5 41.8,42.3 44.2,46.5 45,46.5 
		42.7,42.5 	"/>
	<path id="Shape_20_" class="st2" d="M55.5,14.3v0.2c1.4-0.2,2.5-1.4,2.5-2.8c0-0.7-0.3-1.5-0.8-2c-0.5-0.5-1.3-0.8-2-0.8
		c-1.6,0-2.9,1.3-2.9,2.9c0,1.4,1.1,2.6,2.5,2.8v-0.2L55.5,14.3z M53.5,13l-0.3,0.2L53.5,13c-0.3-0.4-0.4-0.8-0.4-1.2
		c0-1.2,1-2.2,2.2-2.2c0.6,0,1.1,0.2,1.5,0.6c0.4,0.4,0.6,0.9,0.6,1.5c0,1.2-1,2.2-2.2,2.2C54.5,13.9,53.9,13.6,53.5,13L53.5,13z"/>
	<polygon id="Shape_21_" class="st2" points="55.5,14.5 55.5,14.3 54.9,14.3 54.9,14.5 55.2,14.5 	"/>
	<path id="Shape_22_" class="st2" d="M16.5,30.5c0-0.1-0.1-0.1-0.1-0.2L0,42.5v0.9l16.8-12.6C16.7,30.7,16.5,30.6,16.5,30.5z"/>
	<path id="Shape_23_" class="st2" d="M16.9,30.1L16.9,30.1c-0.2-0.4-0.3-0.9-0.3-1.3c0-1.2,1-2.2,2.2-2.2c0.6,0,1.1,0.2,1.5,0.6
		c0.4,0.4,0.6,0.9,0.6,1.5c0,1.2-1,2.2-2.2,2.2C18.1,31,17.4,30.6,16.9,30.1L16.9,30.1l0.3,0.4l-0.4,0.3c0.5,0.5,1.3,0.8,2,0.8
		c1.6,0,2.9-1.3,2.9-2.9c0-0.7-0.3-1.5-0.8-2c-0.5-0.5-1.3-0.8-2-0.8c-1.6,0-2.9,1.3-2.9,2.9c0,0.5,0.2,1,0.4,1.5l0.4-0.3L16.9,30.1
		z"/>
	<path id="Shape_24_" class="st2" d="M16.9,30.1l-0.2,0.1l-0.3,0.2c0.1,0.1,0.2,0.2,0.3,0.4l0.4-0.3L16.9,30.1z"/>
	<path id="Shape_25_" class="st2" d="M16.7,30.2l0.2-0.1l-0.1-0.2l-0.4,0.3c0,0.1,0.1,0.1,0.1,0.2L16.7,30.2z"/>
	<path id="Shape_26_" class="st3" d="M5.2,34.1l4.3-4.8c2.8,2.3,6.2,3.6,9.8,3.7c3,0,4.8-1.1,4.8-2.9v-0.1c0-1.7-1.1-2.6-6.6-3.9
		c-6.6-1.6-10.9-3.3-10.9-9.4v-0.1c0-5.6,4.8-9.2,11.5-9.2c4.4-0.1,8.7,1.3,12.2,3.9l-3.8,5.1c-2.5-1.8-5.5-2.8-8.6-3
		c-2.8,0-4.2,1.2-4.2,2.7v0.1c0,2,1.4,2.7,7.1,4c6.7,1.6,10.4,3.9,10.4,9.2v0.1c0,6.1-5,9.5-12.1,9.5C14.1,39,9.2,37.3,5.2,34.1
		L5.2,34.1z"/>
	<path id="Shape_27_" class="st3" d="M33.3,28.1V28c0-6,5-11,11.9-11c4.3,0,7,1.3,9.1,3.5l-4,4c-1.3-1.5-3.2-2.3-5.2-2.3
		c-1.5,0-2.9,0.6-4,1.7s-1.6,2.5-1.5,4.1V28c-0.1,1.6,0.5,3.1,1.6,4.2c1.1,1.1,2.6,1.7,4.2,1.7c2,0,3.8-0.8,5.2-2.2l3.8,3.5
		c-2.4,2.6-5.8,4-9.3,3.9C38.3,39,33.3,34.2,33.3,28.1z"/>
</g>
</svg>
