<?xml version="1.0" encoding="utf-8"?>
<!-- Generator: Adobe Illustrator 22.1.0, SVG Export Plug-In . SVG Version: 6.00 Build 0)  -->
<svg version="1.1" id="Layer_1" xmlns="http://www.w3.org/2000/svg" xmlns:xlink="http://www.w3.org/1999/xlink" x="0px" y="0px"
	 viewBox="0 0 157.1 60.7" style="enable-background:new 0 0 157.1 60.7;" xml:space="preserve">
<style type="text/css">
	.st0{fill:#5FBA46;}
	.st1{fill:#231F20;}
</style>
<g>
	<g>
		<path class="st0" d="M52.3,15.4c-5.9-5.2-12.1-8-21-7.6c-9.5,0.5-18.8,6.1-24,16.1c-4.4,8.9-4.4,19.9,1.4,29.6
			c1.7,2.8,3.2,4.4,5.3,6.5c-2.6-2.1-4.2-3.7-6.4-6.7c-6.4-9-7.8-20.6-3.8-31c9-22.2,35.6-28,53.4-14.9c0.6,0.4,0.9,0.7,0.9,0.7
			L52.3,15.4z"/>
		<g>
			<path class="st1" d="M61.7,38l-2.8,13.5h-9.6l7.4-35.1h15.1c7.5,0,11.4,3.7,11.4,9.2c0,4.8-2.9,8-7.2,9.2c1.9,0.8,4.1,3,3,8.7
				c-0.8,3.7-1.3,6.4-1.2,8h-9.3c-0.2-1.5,0.1-4,1-8.3c0.7-3.3,0.4-5.2-3.1-5.2H61.7z M63.1,31.2h4.5c3.3,0,5.7-1.3,5.7-4.5
				c0-2.1-1.1-3.5-4.1-3.5h-4.4L63.1,31.2z"/>
			<path class="st1" d="M97.9,16.4l-7.4,35.1h-9.8l7.4-35.1H97.9z"/>
			<path class="st1" d="M103.5,51.5l-4.3-35.1h9.7l1.2,14.7c0.4,4.8,0.5,9.5,0.5,12h0.2c1.4-3.6,3.1-7.1,5.5-11.9l7.5-14.8h10.3
				l-19.4,35.1H103.5z"/>
			<path class="st1" d="M138.1,40.1c0,2.7,1,5.4,4,5.4c2.4,0,3-1,3.5-2.4h9.7c-1,3.5-4,9-13.4,9c-10.1,0-13.8-6.8-13.8-13.8
				c0-8,4.3-14.2,14-14.2c10.3,0,13.5,7,13.5,13.7c0,0.9,0,1.6-0.1,2.3H138.1z M145.6,34.9c0-2.5-0.7-4.6-3.6-4.6
				c-2.6,0-3.7,2-3.8,4.6H145.6z"/>
			<g>
				<polygon class="st1" points="18.4,37.7 28.2,37.7 28.7,35.2 19,35.2 				"/>
				<path class="st1" d="M35.7,16.4H22.9l-2.3,11.1h9.8l0.9-4h3.3c4.2,0,6.4,2.4,6.4,7.5c0,7.1-3.6,13.5-9.9,13.5h-4.2l0.9-4.2h-9.7
					l-2.4,11.2h14.9c14.6,0,20.7-10.1,20.7-20.2C51.1,22.2,45.4,16.4,35.7,16.4z"/>
				<polygon class="st1" points="19.5,32.6 29.3,32.6 29.8,30 20,30 				"/>
			</g>
		</g>
	</g>
	<g>
		<path class="st0" d="M54.3,58.4v-5.1h-1.9v-0.7H57v0.7h-1.9v5.1H54.3z"/>
		<path class="st0" d="M57.4,58.4v-4.1H58v0.6c0.2-0.3,0.3-0.5,0.4-0.6s0.3-0.1,0.5-0.1c0.2,0,0.5,0.1,0.7,0.2L59.4,55
			c-0.2-0.1-0.3-0.2-0.5-0.2c-0.2,0-0.3,0-0.4,0.1c-0.1,0.1-0.2,0.2-0.3,0.4c-0.1,0.2-0.1,0.5-0.1,0.8v2.2H57.4z"/>
		<path class="st0" d="M62.7,57.9c-0.3,0.2-0.5,0.4-0.8,0.5c-0.2,0.1-0.5,0.1-0.8,0.1c-0.5,0-0.8-0.1-1.1-0.3
			c-0.2-0.2-0.4-0.5-0.4-0.9c0-0.2,0-0.4,0.1-0.6c0.1-0.2,0.2-0.3,0.4-0.4c0.1-0.1,0.3-0.2,0.5-0.2c0.1,0,0.3-0.1,0.6-0.1
			c0.6-0.1,1-0.1,1.3-0.2c0-0.1,0-0.2,0-0.2c0-0.3-0.1-0.5-0.2-0.6c-0.2-0.2-0.4-0.2-0.8-0.2c-0.3,0-0.6,0.1-0.7,0.2
			c-0.2,0.1-0.3,0.3-0.3,0.6l-0.7-0.1c0.1-0.3,0.2-0.5,0.3-0.7c0.1-0.2,0.3-0.3,0.6-0.4c0.3-0.1,0.6-0.1,0.9-0.1
			c0.4,0,0.6,0,0.9,0.1c0.2,0.1,0.4,0.2,0.5,0.3c0.1,0.1,0.2,0.3,0.2,0.5c0,0.1,0,0.3,0,0.6v0.9c0,0.7,0,1.1,0,1.2
			c0,0.2,0.1,0.3,0.2,0.5h-0.7C62.8,58.2,62.7,58.1,62.7,57.9z M62.7,56.3c-0.3,0.1-0.6,0.2-1.1,0.3c-0.3,0-0.5,0.1-0.6,0.1
			c-0.1,0.1-0.2,0.1-0.3,0.2c-0.1,0.1-0.1,0.2-0.1,0.3c0,0.2,0.1,0.3,0.2,0.5c0.1,0.1,0.3,0.2,0.6,0.2c0.3,0,0.5-0.1,0.7-0.2
			s0.4-0.3,0.5-0.5c0.1-0.2,0.1-0.4,0.1-0.7V56.3z"/>
		<path class="st0" d="M64.5,58.4v-4.1h0.6v0.6c0.3-0.5,0.7-0.7,1.3-0.7c0.2,0,0.5,0,0.7,0.1c0.2,0.1,0.4,0.2,0.5,0.4
			c0.1,0.1,0.2,0.3,0.2,0.5c0,0.1,0,0.4,0,0.7v2.6h-0.7v-2.5c0-0.3,0-0.5-0.1-0.6s-0.2-0.3-0.3-0.3c-0.1-0.1-0.3-0.1-0.5-0.1
			c-0.3,0-0.6,0.1-0.8,0.3c-0.2,0.2-0.3,0.6-0.3,1.1v2.3H64.5z"/>
		<path class="st0" d="M68.6,57.1l0.7-0.1c0,0.3,0.1,0.5,0.3,0.6c0.2,0.1,0.4,0.2,0.7,0.2c0.3,0,0.6-0.1,0.7-0.2s0.2-0.3,0.2-0.5
			c0-0.2-0.1-0.3-0.2-0.4c-0.1-0.1-0.3-0.1-0.7-0.2c-0.5-0.1-0.9-0.2-1.1-0.3S69,56,68.9,55.9c-0.1-0.2-0.2-0.4-0.2-0.6
			c0-0.2,0-0.4,0.1-0.5c0.1-0.2,0.2-0.3,0.3-0.4c0.1-0.1,0.3-0.1,0.4-0.2c0.2-0.1,0.4-0.1,0.6-0.1c0.3,0,0.6,0,0.9,0.1
			s0.4,0.2,0.5,0.4s0.2,0.4,0.2,0.6l-0.7,0.1c0-0.2-0.1-0.4-0.3-0.5c-0.2-0.1-0.4-0.2-0.6-0.2c-0.3,0-0.6,0.1-0.7,0.2
			c-0.1,0.1-0.2,0.2-0.2,0.4c0,0.1,0,0.2,0.1,0.2c0.1,0.1,0.1,0.1,0.3,0.2c0.1,0,0.3,0.1,0.6,0.2c0.5,0.1,0.8,0.2,1,0.3
			c0.2,0.1,0.4,0.2,0.5,0.4c0.1,0.2,0.2,0.4,0.2,0.6c0,0.2-0.1,0.5-0.2,0.7s-0.3,0.4-0.6,0.5s-0.5,0.2-0.9,0.2c-0.5,0-1-0.1-1.2-0.3
			C68.9,57.9,68.7,57.6,68.6,57.1z"/>
		<path class="st0" d="M73.1,58.4v-3.6h-0.6v-0.5h0.6v-0.4c0-0.3,0-0.5,0.1-0.6c0.1-0.2,0.2-0.3,0.4-0.4c0.2-0.1,0.4-0.2,0.7-0.2
			c0.2,0,0.4,0,0.7,0.1l-0.1,0.6c-0.1,0-0.3,0-0.4,0c-0.2,0-0.4,0-0.5,0.1c-0.1,0.1-0.1,0.3-0.1,0.5v0.4h0.8v0.5h-0.8v3.6H73.1z"/>
		<path class="st0" d="M74.9,56.3c0-0.8,0.2-1.3,0.6-1.7c0.4-0.3,0.8-0.5,1.3-0.5c0.6,0,1,0.2,1.4,0.6c0.4,0.4,0.5,0.9,0.5,1.5
			c0,0.5-0.1,1-0.2,1.3s-0.4,0.5-0.7,0.7c-0.3,0.2-0.6,0.3-1,0.3c-0.6,0-1.1-0.2-1.4-0.6C75.1,57.5,74.9,57,74.9,56.3z M75.6,56.3
			c0,0.5,0.1,0.9,0.3,1.2c0.2,0.3,0.5,0.4,0.9,0.4c0.3,0,0.6-0.1,0.9-0.4c0.2-0.3,0.3-0.7,0.3-1.2c0-0.5-0.1-0.9-0.3-1.2
			c-0.2-0.3-0.5-0.4-0.9-0.4c-0.4,0-0.6,0.1-0.9,0.4C75.7,55.4,75.6,55.8,75.6,56.3z"/>
		<path class="st0" d="M79.6,58.4v-4.1h0.6v0.6c0.2-0.3,0.3-0.5,0.4-0.6s0.3-0.1,0.5-0.1c0.2,0,0.5,0.1,0.7,0.2L81.6,55
			c-0.2-0.1-0.3-0.2-0.5-0.2c-0.2,0-0.3,0-0.4,0.1c-0.1,0.1-0.2,0.2-0.3,0.4c-0.1,0.2-0.1,0.5-0.1,0.8v2.2H79.6z"/>
		<path class="st0" d="M82.3,58.4v-4.1h0.6v0.6c0.1-0.2,0.3-0.4,0.5-0.5c0.2-0.1,0.5-0.2,0.7-0.2c0.3,0,0.6,0.1,0.8,0.2
			c0.2,0.1,0.3,0.3,0.4,0.5c0.3-0.5,0.8-0.7,1.3-0.7c0.4,0,0.7,0.1,0.9,0.3c0.2,0.2,0.3,0.6,0.3,1.1v2.8h-0.7v-2.6
			c0-0.3,0-0.5-0.1-0.6c0-0.1-0.1-0.2-0.2-0.3c-0.1-0.1-0.3-0.1-0.4-0.1c-0.3,0-0.5,0.1-0.7,0.3c-0.2,0.2-0.3,0.5-0.3,0.9v2.4h-0.7
			v-2.7c0-0.3-0.1-0.5-0.2-0.7c-0.1-0.2-0.3-0.2-0.6-0.2c-0.2,0-0.4,0.1-0.5,0.2s-0.3,0.3-0.4,0.5C83,55.5,83,55.8,83,56.2v2.2H82.3
			z"/>
		<path class="st0" d="M88.9,53.5v-0.8h0.7v0.8H88.9z M88.9,58.4v-4.1h0.7v4.1H88.9z"/>
		<path class="st0" d="M90.7,58.4v-4.1h0.6v0.6c0.3-0.5,0.7-0.7,1.3-0.7c0.2,0,0.5,0,0.7,0.1c0.2,0.1,0.4,0.2,0.5,0.4
			c0.1,0.1,0.2,0.3,0.2,0.5c0,0.1,0,0.4,0,0.7v2.6h-0.7v-2.5c0-0.3,0-0.5-0.1-0.6s-0.2-0.3-0.3-0.3c-0.1-0.1-0.3-0.1-0.5-0.1
			c-0.3,0-0.6,0.1-0.8,0.3c-0.2,0.2-0.3,0.6-0.3,1.1v2.3H90.7z"/>
		<path class="st0" d="M95,58.7l0.7,0.1c0,0.2,0.1,0.4,0.2,0.5c0.2,0.1,0.4,0.2,0.7,0.2c0.3,0,0.6-0.1,0.8-0.2
			c0.2-0.1,0.3-0.3,0.4-0.5c0-0.1,0.1-0.4,0.1-0.9c-0.3,0.4-0.7,0.5-1.1,0.5c-0.6,0-1-0.2-1.3-0.6s-0.5-0.9-0.5-1.5
			c0-0.4,0.1-0.8,0.2-1.1c0.1-0.3,0.4-0.6,0.6-0.8c0.3-0.2,0.6-0.3,1-0.3c0.5,0,0.9,0.2,1.2,0.6v-0.5h0.6v3.6c0,0.6-0.1,1.1-0.2,1.4
			c-0.1,0.3-0.3,0.5-0.6,0.6s-0.6,0.2-1.1,0.2c-0.5,0-0.9-0.1-1.2-0.3S95,59.2,95,58.7z M95.6,56.2c0,0.5,0.1,0.9,0.3,1.2
			c0.2,0.2,0.5,0.4,0.8,0.4c0.3,0,0.6-0.1,0.8-0.4s0.3-0.6,0.3-1.2c0-0.5-0.1-0.9-0.3-1.1c-0.2-0.3-0.5-0.4-0.8-0.4
			c-0.3,0-0.6,0.1-0.8,0.4S95.6,55.7,95.6,56.2z"/>
		<path class="st0" d="M101.9,58.4v-5.7h0.8V55h3v-2.4h0.8v5.7h-0.8v-2.7h-3v2.7H101.9z"/>
		<path class="st0" d="M110.4,57l0.7,0.1c-0.1,0.4-0.3,0.8-0.6,1s-0.7,0.4-1.2,0.4c-0.6,0-1.1-0.2-1.4-0.6s-0.5-0.9-0.5-1.6
			c0-0.7,0.2-1.2,0.5-1.6s0.8-0.6,1.4-0.6c0.6,0,1,0.2,1.4,0.6s0.5,0.9,0.5,1.6c0,0,0,0.1,0,0.2h-3.1c0,0.5,0.2,0.8,0.4,1
			s0.5,0.4,0.9,0.4c0.3,0,0.5-0.1,0.7-0.2S110.3,57.3,110.4,57z M108.1,55.9h2.3c0-0.3-0.1-0.6-0.3-0.8c-0.2-0.3-0.5-0.4-0.9-0.4
			c-0.3,0-0.6,0.1-0.8,0.3S108.2,55.5,108.1,55.9z"/>
		<path class="st0" d="M114.8,57.9c-0.3,0.2-0.5,0.4-0.8,0.5s-0.5,0.1-0.8,0.1c-0.5,0-0.8-0.1-1.1-0.3s-0.4-0.5-0.4-0.9
			c0-0.2,0-0.4,0.1-0.6s0.2-0.3,0.4-0.4s0.3-0.2,0.5-0.2c0.1,0,0.3-0.1,0.6-0.1c0.6-0.1,1-0.1,1.3-0.2c0-0.1,0-0.2,0-0.2
			c0-0.3-0.1-0.5-0.2-0.6c-0.2-0.2-0.4-0.2-0.8-0.2c-0.3,0-0.6,0.1-0.7,0.2s-0.3,0.3-0.3,0.6l-0.7-0.1c0.1-0.3,0.2-0.5,0.3-0.7
			s0.4-0.3,0.6-0.4s0.6-0.1,0.9-0.1c0.4,0,0.6,0,0.9,0.1s0.4,0.2,0.5,0.3s0.2,0.3,0.2,0.5c0,0.1,0,0.3,0,0.6v0.9c0,0.7,0,1.1,0,1.2
			s0.1,0.3,0.2,0.5h-0.7C114.8,58.2,114.8,58.1,114.8,57.9z M114.7,56.3c-0.3,0.1-0.6,0.2-1.1,0.3c-0.3,0-0.5,0.1-0.6,0.1
			s-0.2,0.1-0.3,0.2s-0.1,0.2-0.1,0.3c0,0.2,0.1,0.3,0.2,0.5s0.3,0.2,0.6,0.2c0.3,0,0.5-0.1,0.7-0.2s0.4-0.3,0.5-0.5
			c0.1-0.2,0.1-0.4,0.1-0.7V56.3z"/>
		<path class="st0" d="M116.5,58.4v-5.7h0.7v5.7H116.5z"/>
		<path class="st0" d="M119.8,57.7l0.1,0.6c-0.2,0-0.4,0.1-0.5,0.1c-0.3,0-0.5,0-0.6-0.1s-0.2-0.2-0.3-0.3s-0.1-0.4-0.1-0.8v-2.4
			h-0.5v-0.5h0.5v-1l0.7-0.4v1.4h0.7v0.5h-0.7v2.4c0,0.2,0,0.3,0,0.4s0.1,0.1,0.1,0.1s0.1,0.1,0.2,0.1
			C119.6,57.8,119.7,57.8,119.8,57.7z"/>
		<path class="st0" d="M120.5,58.4v-5.7h0.7v2.1c0.3-0.4,0.7-0.6,1.2-0.6c0.3,0,0.6,0.1,0.8,0.2s0.4,0.3,0.5,0.5s0.1,0.5,0.1,0.9
			v2.6h-0.7v-2.6c0-0.4-0.1-0.6-0.2-0.8s-0.4-0.2-0.6-0.2c-0.2,0-0.4,0.1-0.6,0.2s-0.3,0.3-0.4,0.4s-0.1,0.4-0.1,0.8v2.3H120.5z"/>
		<path class="st0" d="M127,56.5l0.7-0.1c0,0.3,0.1,0.5,0.2,0.7s0.3,0.3,0.6,0.4s0.6,0.2,0.9,0.2c0.3,0,0.5,0,0.8-0.1
			s0.4-0.2,0.5-0.4s0.2-0.3,0.2-0.5c0-0.2-0.1-0.3-0.2-0.5s-0.3-0.2-0.5-0.3c-0.2-0.1-0.5-0.2-1-0.3s-0.9-0.2-1.1-0.4
			c-0.3-0.1-0.5-0.3-0.6-0.5s-0.2-0.4-0.2-0.7c0-0.3,0.1-0.6,0.2-0.8s0.4-0.4,0.7-0.6s0.7-0.2,1.1-0.2c0.4,0,0.8,0.1,1.1,0.2
			s0.6,0.3,0.7,0.6s0.3,0.6,0.3,0.9l-0.7,0.1c0-0.4-0.2-0.6-0.4-0.8s-0.6-0.3-1-0.3c-0.5,0-0.8,0.1-1,0.3s-0.3,0.4-0.3,0.6
			c0,0.2,0.1,0.4,0.2,0.5c0.1,0.1,0.5,0.3,1.1,0.4s1,0.3,1.3,0.4c0.3,0.2,0.6,0.3,0.7,0.6s0.2,0.5,0.2,0.8c0,0.3-0.1,0.6-0.3,0.9
			s-0.4,0.5-0.8,0.6s-0.7,0.2-1.1,0.2c-0.5,0-1-0.1-1.3-0.2s-0.6-0.4-0.8-0.7S127,56.9,127,56.5z"/>
		<path class="st0" d="M135.3,57l0.7,0.1c-0.1,0.4-0.3,0.8-0.6,1s-0.7,0.4-1.2,0.4c-0.6,0-1.1-0.2-1.4-0.6s-0.5-0.9-0.5-1.6
			c0-0.7,0.2-1.2,0.5-1.6s0.8-0.6,1.4-0.6c0.6,0,1,0.2,1.4,0.6s0.5,0.9,0.5,1.6c0,0,0,0.1,0,0.2H133c0,0.5,0.2,0.8,0.4,1
			s0.5,0.4,0.9,0.4c0.3,0,0.5-0.1,0.7-0.2S135.2,57.3,135.3,57z M133,55.9h2.3c0-0.3-0.1-0.6-0.3-0.8c-0.2-0.3-0.5-0.4-0.9-0.4
			c-0.3,0-0.6,0.1-0.8,0.3S133.1,55.5,133,55.9z"/>
		<path class="st0" d="M139.7,56.8l0.7,0.1c-0.1,0.5-0.3,0.8-0.6,1.1s-0.7,0.4-1.1,0.4c-0.6,0-1-0.2-1.4-0.6s-0.5-0.9-0.5-1.6
			c0-0.4,0.1-0.8,0.2-1.2s0.4-0.6,0.7-0.8s0.6-0.3,1-0.3c0.5,0,0.8,0.1,1.1,0.3s0.5,0.6,0.6,1l-0.7,0.1c-0.1-0.3-0.2-0.5-0.3-0.6
			s-0.4-0.2-0.6-0.2c-0.4,0-0.6,0.1-0.9,0.4s-0.3,0.7-0.3,1.2c0,0.6,0.1,1,0.3,1.2s0.5,0.4,0.8,0.4c0.3,0,0.5-0.1,0.7-0.3
			S139.6,57.2,139.7,56.8z"/>
		<path class="st0" d="M143.7,58.4v-0.6c-0.3,0.5-0.8,0.7-1.3,0.7c-0.2,0-0.5,0-0.7-0.1s-0.4-0.2-0.5-0.4s-0.2-0.3-0.2-0.5
			c0-0.1,0-0.4,0-0.7v-2.6h0.7v2.3c0,0.4,0,0.6,0,0.7c0,0.2,0.1,0.3,0.3,0.4s0.3,0.2,0.5,0.2s0.4-0.1,0.6-0.2s0.3-0.3,0.4-0.4
			s0.1-0.5,0.1-0.8v-2.2h0.7v4.1H143.7z"/>
		<path class="st0" d="M145.4,58.4v-4.1h0.6v0.6c0.2-0.3,0.3-0.5,0.4-0.6s0.3-0.1,0.5-0.1c0.2,0,0.5,0.1,0.7,0.2l-0.2,0.7
			c-0.2-0.1-0.3-0.2-0.5-0.2c-0.2,0-0.3,0-0.4,0.1s-0.2,0.2-0.3,0.4c-0.1,0.2-0.1,0.5-0.1,0.8v2.2H145.4z"/>
		<path class="st0" d="M148.1,53.5v-0.8h0.7v0.8H148.1z M148.1,58.4v-4.1h0.7v4.1H148.1z"/>
		<path class="st0" d="M151.4,57.7l0.1,0.6c-0.2,0-0.4,0.1-0.5,0.1c-0.3,0-0.5,0-0.6-0.1s-0.2-0.2-0.3-0.3s-0.1-0.4-0.1-0.8v-2.4
			h-0.5v-0.5h0.5v-1l0.7-0.4v1.4h0.7v0.5h-0.7v2.4c0,0.2,0,0.3,0,0.4s0.1,0.1,0.1,0.1s0.1,0.1,0.2,0.1
			C151.1,57.8,151.2,57.8,151.4,57.7z"/>
		<path class="st0" d="M152,60l-0.1-0.7c0.2,0,0.3,0.1,0.4,0.1c0.2,0,0.3,0,0.4-0.1s0.2-0.1,0.2-0.2c0-0.1,0.1-0.2,0.2-0.5
			c0,0,0-0.1,0.1-0.2l-1.6-4.2h0.8l0.9,2.4c0.1,0.3,0.2,0.6,0.3,1c0.1-0.3,0.2-0.6,0.3-0.9l0.9-2.4h0.7l-1.6,4.2
			c-0.2,0.5-0.3,0.8-0.4,0.9c-0.1,0.2-0.3,0.4-0.4,0.5s-0.4,0.2-0.6,0.2C152.4,60.1,152.2,60,152,60z"/>
	</g>
</g>
</svg>
